<svg width="24" height="24" viewBox="0 0 24 24" fill="none" xmlns="http://www.w3.org/2000/svg">
<g clip-path="url(#clip0_460_2176)">
<path d="M23.3578 4.8158C22.5431 5.17678 21.668 5.42068 20.748 5.53093C21.6973 4.96292 22.4075 4.06894 22.7461 3.0158C21.8542 3.54555 20.8781 3.91843 19.8602 4.11824C19.1757 3.38738 18.269 2.90295 17.281 2.74017C16.293 2.57739 15.2788 2.74536 14.396 3.218C13.5133 3.69065 12.8112 4.44152 12.3989 5.35405C11.9866 6.26658 11.8871 7.28971 12.1158 8.26458C10.3087 8.17385 8.54081 7.70414 6.92696 6.88595C5.3131 6.06776 3.88931 4.91937 2.74801 3.51532C2.35776 4.18849 2.13337 4.96897 2.13337 5.80019C2.13294 6.54848 2.31721 7.28531 2.66984 7.9453C3.02247 8.60529 3.53255 9.16804 4.15483 9.58361C3.43315 9.56064 2.72739 9.36564 2.0963 9.01483V9.07336C2.09623 10.1229 2.45926 11.1401 3.12379 11.9524C3.78833 12.7647 4.71344 13.3221 5.74215 13.5299C5.07267 13.7111 4.37077 13.7378 3.68947 13.608C3.97971 14.511 4.54507 15.3007 5.30641 15.8665C6.06775 16.4322 6.98695 16.7457 7.93532 16.7631C6.3254 18.0269 4.33716 18.7125 2.29044 18.7095C1.92789 18.7096 1.56564 18.6884 1.20557 18.646C3.2831 19.9818 5.70151 20.6908 8.17142 20.688C16.5324 20.688 21.1031 13.7631 21.1031 7.75727C21.1031 7.56214 21.0982 7.36507 21.0895 7.16995C21.9785 6.527 22.746 5.73082 23.3558 4.81873L23.3578 4.8158Z" fill="black"/>
</g>
<defs>
<clipPath id="clip0_460_2176">
<rect width="23.4146" height="23.4146" fill="white" transform="translate(0.29126)"/>
</clipPath>
</defs>
</svg>
