<svg width="21" height="23" viewBox="0 0 21 23" fill="none" xmlns="http://www.w3.org/2000/svg">
<g clip-path="url(#clip0_460_2186)">
<path fill-rule="evenodd" clip-rule="evenodd" d="M7.79856 1.30471C6.43842 2.01323 5.32563 2.61278 5.32587 2.63717C5.32648 2.70011 8.59024 4.35301 8.70609 4.34898C8.75878 4.34721 9.14105 4.17125 9.55553 3.95799L10.3092 3.57032L11.1324 3.99344L11.9555 4.41663L13.3035 3.81091C15.3347 2.89819 15.5456 2.79818 15.5126 2.76457C15.4687 2.71999 14.7401 2.32861 12.7636 1.28801C11.8083 0.785078 10.8812 0.291969 10.7032 0.192188C10.5252 0.0924072 10.3553 0.0121403 10.3256 0.0136941C10.2959 0.0152478 9.15872 0.596209 7.79856 1.30471ZM1.83299 4.39388L0.417105 5.12523V8.33502C0.417105 10.1004 0.435697 11.5448 0.458503 11.5448C0.481229 11.5448 1.17785 11.2428 2.00651 10.8737L3.51318 10.2027V6.81934L4.24943 7.22047C4.81678 7.52929 5.38447 7.83748 5.9525 8.14504L6.91928 8.66849L7.34948 8.47396C7.61928 8.35176 7.88854 8.22837 8.15725 8.1038C8.3649 8.0071 8.87463 7.77752 9.28995 7.59352C9.70526 7.40944 10.0897 7.22434 10.1442 7.18215C10.2166 7.12611 9.33361 6.63814 6.87812 5.3772C5.02721 4.42672 3.45345 3.65207 3.38087 3.65578C3.30829 3.65949 2.61175 3.99159 1.83299 4.39388ZM15.7677 4.59926C14.8034 5.03459 14.0138 5.40817 14.0129 5.42947C14.012 5.45075 14.5376 5.76326 15.1809 6.12383C15.8241 6.48448 16.3505 6.79883 16.3505 6.8225C16.3505 6.84613 15.7812 7.12193 15.0856 7.43551C14.3899 7.74902 12.6314 8.54316 11.1778 9.20028L6.30717 11.4019C5.08196 11.9557 3.97758 12.455 3.85299 12.5114C1.35045 13.6443 0.662593 13.9586 0.568132 14.0126C0.473145 14.0669 0.451629 14.3825 0.434723 15.9666L0.414551 17.8559L1.6807 18.5011L2.94683 19.1462L4.70251 18.3538C5.66816 17.9181 6.45819 17.5387 6.45819 17.5108C6.45819 17.4829 6.27975 17.3666 6.06176 17.2523C5.84366 17.138 5.39344 16.8848 5.06118 16.6897C4.72895 16.4945 4.39767 16.3155 4.32493 16.2917C4.25222 16.2681 4.19379 16.2266 4.19497 16.1996C4.19618 16.1727 4.9693 15.8054 5.91291 15.3835C7.7457 14.564 9.14829 13.9325 12.1595 12.5708C13.506 11.962 14.8526 11.3536 16.1994 10.7455C17.3831 10.2113 18.7593 9.58726 19.2577 9.35889L20.1639 8.94368L20.184 7.03284L20.2043 5.12207L18.9201 4.46293C18.2138 4.10043 17.61 3.80473 17.5784 3.80581C17.5467 3.80681 16.732 4.16382 15.7677 4.59926ZM19.8198 11.4928C19.6306 11.5853 19.2568 11.7583 18.9892 11.8774C18.7216 11.9965 18.2138 12.2256 17.8607 12.3867L17.2189 12.6794L17.2042 14.357C17.1961 15.2796 17.1622 16.0304 17.1287 16.0255C17.0527 16.0142 15.8497 15.3973 14.6405 14.7493C13.7677 14.2817 13.7128 14.2631 13.5078 14.3646C13.3892 14.4234 12.6805 14.7412 11.9329 15.0711C11.1853 15.4008 10.5493 15.6922 10.5194 15.7186C10.4896 15.7449 11.9942 16.5604 13.8631 17.5309L17.2609 19.2954L18.7125 18.5445C19.5107 18.1316 20.1895 17.7549 20.2208 17.7075C20.2911 17.601 20.2851 11.3102 20.2146 11.3187C20.1868 11.322 20.0091 11.4004 19.8198 11.4928ZM11.7819 18.8767C11.5301 18.985 11.2784 19.0934 11.0268 19.2019C10.2669 19.5307 10.4158 19.5416 9.51173 19.0915C8.9096 18.7918 8.65005 18.6993 8.53739 18.7442C8.45288 18.7779 7.72561 19.1051 6.9211 19.4713C6.11664 19.8375 5.43052 20.1372 5.39639 20.1372C5.05887 20.1372 5.62 20.4724 7.78528 21.5647L10.3246 22.8455L11.3931 22.318C11.9807 22.0279 13.166 21.4469 14.0271 21.027C14.8881 20.607 15.5819 20.2524 15.5689 20.2391C15.5558 20.2257 14.8344 19.8553 13.9656 19.4158L12.386 18.6169L11.7819 18.8767Z" fill="black"/>
</g>
<defs>
<clipPath id="clip0_460_2186">
<rect width="19.8766" height="22.8571" fill="white" transform="translate(0.414551)"/>
</clipPath>
</defs>
</svg>
