<svg width="29" height="28" viewBox="0 0 29 28" fill="none" xmlns="http://www.w3.org/2000/svg">
<path d="M19.6439 6.79C18.8464 5.87956 18.4069 4.71034 18.4073 3.5H14.8023V17.9667C14.7745 18.7495 14.444 19.4911 13.8803 20.0351C13.3167 20.5791 12.564 20.8832 11.7806 20.8833C10.1239 20.8833 8.74728 19.53 8.74728 17.85C8.74728 15.8433 10.6839 14.3383 12.6789 14.9567V11.27C8.65395 10.7333 5.13062 13.86 5.13062 17.85C5.13062 21.735 8.35062 24.5 11.7689 24.5C15.4323 24.5 18.4073 21.525 18.4073 17.85V10.5117C19.8691 11.5615 21.6242 12.1248 23.4239 12.1217V8.51667C23.4239 8.51667 21.2306 8.62167 19.6439 6.79Z" fill="black"/>
</svg>
