<svg width="30" height="29" viewBox="0 0 30 29" fill="none" xmlns="http://www.w3.org/2000/svg">
<path d="M12.6107 17.8579L18.7893 14.2865L12.6107 10.715V17.8579ZM26.3726 8.53646C26.5274 9.09598 26.6345 9.84598 26.706 10.7984C26.7893 11.7507 26.825 12.5722 26.825 13.2865L26.8964 14.2865C26.8964 16.8936 26.706 18.8103 26.3726 20.0365C26.075 21.1079 25.3845 21.7984 24.3131 22.096C23.7536 22.2507 22.7298 22.3579 21.1583 22.4293C19.6107 22.5126 18.1941 22.5484 16.8845 22.5484L14.9917 22.6198C10.0036 22.6198 6.89644 22.4293 5.67025 22.096C4.59882 21.7984 3.90834 21.1079 3.61072 20.0365C3.45596 19.4769 3.34882 18.7269 3.27739 17.7746C3.19406 16.8222 3.15834 16.0007 3.15834 15.2865L3.08691 14.2865C3.08691 11.6793 3.27739 9.76265 3.61072 8.53646C3.90834 7.46503 4.59882 6.77455 5.67025 6.47693C6.22977 6.32217 7.25358 6.21503 8.82501 6.1436C10.3726 6.06027 11.7893 6.02455 13.0988 6.02455L14.9917 5.95312C19.9798 5.95312 23.0869 6.1436 24.3131 6.47693C25.3845 6.77455 26.075 7.46503 26.3726 8.53646Z" fill="black"/>
</svg>
