<svg width="29" height="28" viewBox="0 0 29 28" fill="none" xmlns="http://www.w3.org/2000/svg">
<path d="M9.23444 2.33398H19.0344C22.7678 2.33398 25.8011 5.36732 25.8011 9.10065V18.9007C25.8011 20.6953 25.0882 22.4164 23.8192 23.6854C22.5502 24.9544 20.8291 25.6673 19.0344 25.6673H9.23444C5.50111 25.6673 2.46777 22.634 2.46777 18.9007V9.10065C2.46777 7.30602 3.18069 5.58489 4.44968 4.3159C5.71868 3.0469 7.43981 2.33398 9.23444 2.33398ZM9.00111 4.66732C7.8872 4.66732 6.81891 5.10982 6.03126 5.89747C5.24361 6.68512 4.80111 7.75341 4.80111 8.86732V19.134C4.80111 21.4557 6.67944 23.334 9.00111 23.334H19.2678C20.3817 23.334 21.45 22.8915 22.2376 22.1038C23.0253 21.3162 23.4678 20.2479 23.4678 19.134V8.86732C23.4678 6.54565 21.5894 4.66732 19.2678 4.66732H9.00111ZM20.2594 6.41732C20.6462 6.41732 21.0171 6.57096 21.2906 6.84445C21.5641 7.11794 21.7178 7.48888 21.7178 7.87565C21.7178 8.26243 21.5641 8.63336 21.2906 8.90685C21.0171 9.18034 20.6462 9.33398 20.2594 9.33398C19.8727 9.33398 19.5017 9.18034 19.2282 8.90685C18.9548 8.63336 18.8011 8.26243 18.8011 7.87565C18.8011 7.48888 18.9548 7.11794 19.2282 6.84445C19.5017 6.57096 19.8727 6.41732 20.2594 6.41732ZM14.1344 8.16732C15.6815 8.16732 17.1653 8.7819 18.2592 9.87586C19.3532 10.9698 19.9678 12.4536 19.9678 14.0007C19.9678 15.5477 19.3532 17.0315 18.2592 18.1254C17.1653 19.2194 15.6815 19.834 14.1344 19.834C12.5873 19.834 11.1036 19.2194 10.0097 18.1254C8.91569 17.0315 8.30111 15.5477 8.30111 14.0007C8.30111 12.4536 8.91569 10.9698 10.0097 9.87586C11.1036 8.7819 12.5873 8.16732 14.1344 8.16732ZM14.1344 10.5007C13.2062 10.5007 12.3159 10.8694 11.6596 11.5258C11.0032 12.1822 10.6344 13.0724 10.6344 14.0007C10.6344 14.9289 11.0032 15.8191 11.6596 16.4755C12.3159 17.1319 13.2062 17.5007 14.1344 17.5007C15.0627 17.5007 15.9529 17.1319 16.6093 16.4755C17.2657 15.8191 17.6344 14.9289 17.6344 14.0007C17.6344 13.0724 17.2657 12.1822 16.6093 11.5258C15.9529 10.8694 15.0627 10.5007 14.1344 10.5007Z" fill="black"/>
</svg>
