<svg width="380" height="70" viewBox="0 0 380 70" fill="none" xmlns="http://www.w3.org/2000/svg">
<g filter="url(#filter0_b_460_2165)">
<path d="M281 69H1V22.3488L22.0405 1H143.428L154.379 20.2993H281V69Z" fill="#040404" fill-opacity="0.7"/>
<path d="M281 69H1V22.3488L22.0405 1H143.428L154.379 20.2993H281V69Z" stroke="#A0A0A0"/>
</g>
<circle cx="53" cy="18" r="6" fill="#FFFF00" fill-opacity="0.4"/>
<path d="M77 18C77 21.3137 74.3137 24 71 24C67.6863 24 65 21.3137 65 18C65 14.6863 67.6863 12 71 12C74.3137 12 77 14.6863 77 18Z" fill="#FF1D1D" fill-opacity="0.4"/>
<circle cx="35" cy="18" r="6" fill="#01FD4C" fill-opacity="0.4"/>
<g filter="url(#filter1_b_460_2165)">
<rect x="290" y="20" width="89" height="49" fill="#040404"/>
<rect x="290" y="20" width="89" height="49" stroke="#A0A0A0"/>
</g>
<path d="M32.74 39.28C33.5 40 33.9 41 33.9 42.32C33.9 43.56 33.5 44.54 32.72 45.24C31.94 45.96 30.88 46.3 29.56 46.3H26.06V52H24.6V38.2H29.56C30.9 38.2 31.96 38.56 32.74 39.28ZM31.66 44.32C32.18 43.88 32.44 43.22 32.44 42.32C32.44 41.38 32.18 40.68 31.66 40.22C31.14 39.76 30.4 39.52 29.44 39.52H26.06V44.98H29.44C30.4 44.98 31.14 44.76 31.66 44.32ZM42.3641 48.68H36.5041L35.3441 52H33.8041L38.8241 38.2H40.0441L45.0641 52H43.5241L42.3641 48.68ZM41.9441 47.44L39.4241 40.24L36.9241 47.44H41.9441ZM51.587 45.94H48.267V52H46.807V38.2H51.927C53.207 38.2 54.227 38.54 54.967 39.22C55.707 39.9 56.087 40.84 56.087 42.08C56.087 43.08 55.827 43.88 55.307 44.52C54.787 45.16 54.047 45.6 53.127 45.8L56.387 52H54.707L51.587 45.94ZM48.267 44.68H51.807C52.687 44.68 53.387 44.46 53.887 44.02C54.367 43.58 54.627 42.94 54.627 42.1C54.627 41.26 54.367 40.62 53.887 40.18C53.407 39.74 52.707 39.52 51.807 39.52H48.267V44.68ZM66.6597 39.52H62.7197V52H61.2797V39.52H57.3397V38.2H66.6597V39.52ZM78.4881 38.2V52H77.0281L69.8881 40.88V52H68.4281V38.2H69.8881L77.0281 49.28V38.2H78.4881ZM83.1498 39.52V44.32H89.0698V45.64H83.1498V50.68H90.0698V52H81.6898V38.2H90.0698V39.52H83.1498ZM97.4073 45.94H94.0873V52H92.6273V38.2H97.7473C99.0273 38.2 100.047 38.54 100.787 39.22C101.527 39.9 101.907 40.84 101.907 42.08C101.907 43.08 101.647 43.88 101.127 44.52C100.607 45.16 99.8673 45.6 98.9473 45.8L102.207 52H100.527L97.4073 45.94ZM94.0873 44.68H97.6273C98.5073 44.68 99.2073 44.46 99.7073 44.02C100.187 43.58 100.447 42.94 100.447 42.1C100.447 41.26 100.187 40.62 99.7073 40.18C99.2273 39.74 98.5273 39.52 97.6273 39.52H94.0873V44.68ZM123.116 38.2L119.656 52H118.356L115.296 40.02L112.316 52H111.016L107.476 38.2H108.896L111.696 49.64L114.396 38.2H116.256L119.056 49.64L121.756 38.2H123.116ZM125.014 38.2H126.474V52H125.014V38.2ZM137.714 39.52H133.774V52H132.334V39.52H128.394V38.2H137.714V39.52ZM148.863 38.2V52H147.403V45.6H140.943V52H139.483V38.2H140.943V44.28H147.403V38.2H148.863ZM158.717 51.54C157.997 51.16 157.417 50.62 157.017 49.9C156.597 49.2 156.397 48.4 156.397 47.5V38.2H157.877V47.38C157.877 48.44 158.157 49.28 158.757 49.9C159.357 50.52 160.157 50.82 161.157 50.82C162.137 50.82 162.937 50.52 163.537 49.9C164.137 49.28 164.437 48.44 164.437 47.38V38.2H165.897V47.5C165.897 48.42 165.677 49.22 165.277 49.92C164.877 50.62 164.317 51.16 163.597 51.54C162.877 51.94 162.057 52.12 161.157 52.12C160.237 52.12 159.437 51.94 158.717 51.54ZM169.512 51.1C168.712 50.42 168.272 49.42 168.152 48.1H169.592C169.772 49.94 170.872 50.84 172.872 50.84C173.912 50.84 174.692 50.62 175.232 50.18C175.772 49.74 176.052 49.1 176.052 48.26C176.052 47.5 175.832 46.94 175.412 46.54C174.972 46.16 174.332 45.9 173.472 45.74L171.912 45.48C170.792 45.3 169.932 44.92 169.332 44.34C168.732 43.76 168.432 42.94 168.432 41.88C168.432 40.68 168.832 39.72 169.652 39.04C170.452 38.36 171.532 38.02 172.872 38.02C174.092 38.02 175.092 38.34 175.872 38.98C176.652 39.62 177.112 40.58 177.272 41.86H175.832C175.672 40.14 174.672 39.28 172.852 39.28C171.892 39.28 171.152 39.52 170.632 39.96C170.112 40.4 169.852 41.02 169.852 41.78C169.852 42.46 170.052 43 170.452 43.38C170.852 43.76 171.472 44.02 172.312 44.16L173.912 44.44C175.072 44.64 175.952 45.04 176.572 45.64C177.172 46.24 177.492 47.1 177.492 48.18C177.492 49.44 177.072 50.42 176.232 51.1C175.392 51.78 174.232 52.12 172.772 52.12C171.372 52.12 170.292 51.78 169.512 51.1ZM192.226 39.52H188.286V52H186.846V39.52H182.906V38.2H192.226V39.52ZM194.389 50.9C193.529 50.06 193.109 48.72 193.109 46.88V43.3C193.109 41.48 193.529 40.14 194.409 39.3C195.269 38.46 196.429 38.02 197.909 38.02C199.349 38.02 200.509 38.46 201.369 39.3C202.229 40.14 202.669 41.48 202.669 43.3V46.88C202.669 48.72 202.229 50.06 201.369 50.9C200.489 51.74 199.329 52.16 197.889 52.16C196.409 52.16 195.249 51.74 194.389 50.9ZM201.209 46.96V43.36C201.209 40.68 200.109 39.34 197.909 39.34C196.789 39.34 195.969 39.66 195.409 40.3C194.849 40.94 194.569 41.96 194.569 43.36V46.96C194.569 48.32 194.849 49.3 195.409 49.9C195.969 50.52 196.809 50.82 197.909 50.82C200.109 50.82 201.209 49.54 201.209 46.96ZM221.792 38.2V52H220.332V41.2L216.432 49.24H215.312L211.392 41.2V52H209.932V38.2H211.392L215.872 47.5L220.332 38.2H221.792ZM232.091 48.68H226.231L225.071 52H223.531L228.551 38.2H229.771L234.791 52H233.251L232.091 48.68ZM231.671 47.44L229.151 40.24L226.651 47.44H231.671ZM241.314 45.94H237.994V52H236.534V38.2H241.654C242.934 38.2 243.954 38.54 244.694 39.22C245.434 39.9 245.814 40.84 245.814 42.08C245.814 43.08 245.554 43.88 245.034 44.52C244.514 45.16 243.774 45.6 242.854 45.8L246.114 52H244.434L241.314 45.94ZM237.994 44.68H241.534C242.414 44.68 243.114 44.46 243.614 44.02C244.094 43.58 244.354 42.94 244.354 42.1C244.354 41.26 244.094 40.62 243.614 40.18C243.134 39.74 242.434 39.52 241.534 39.52H237.994V44.68ZM248.926 51.1C248.126 50.42 247.686 49.42 247.566 48.1H249.006C249.186 49.94 250.286 50.84 252.286 50.84C253.326 50.84 254.106 50.62 254.646 50.18C255.186 49.74 255.466 49.1 255.466 48.26C255.466 47.5 255.246 46.94 254.826 46.54C254.386 46.16 253.746 45.9 252.886 45.74L251.326 45.48C250.206 45.3 249.346 44.92 248.746 44.34C248.146 43.76 247.846 42.94 247.846 41.88C247.846 40.68 248.246 39.72 249.066 39.04C249.866 38.36 250.946 38.02 252.286 38.02C253.506 38.02 254.506 38.34 255.286 38.98C256.066 39.62 256.526 40.58 256.686 41.86H255.246C255.086 40.14 254.086 39.28 252.266 39.28C251.306 39.28 250.566 39.52 250.046 39.96C249.526 40.4 249.266 41.02 249.266 41.78C249.266 42.46 249.466 43 249.866 43.38C250.266 43.76 250.886 44.02 251.726 44.16L253.326 44.44C254.486 44.64 255.366 45.04 255.986 45.64C256.586 46.24 256.906 47.1 256.906 48.18C256.906 49.44 256.486 50.42 255.646 51.1C254.806 51.78 253.646 52.12 252.186 52.12C250.786 52.12 249.706 51.78 248.926 51.1Z" fill="white"/>
<path d="M360.417 54L358.032 51.6185L363.559 46.1518L298 46.1518L298.003 42.7928L363.5 42.7928L358.066 37.3681L360.461 35L370 44.5227L360.417 54Z" fill="#FFFF00"/>
<defs>
<filter id="filter0_b_460_2165" x="-4.71839" y="-4.71839" width="291.437" height="79.4368" filterUnits="userSpaceOnUse" color-interpolation-filters="sRGB">
<feFlood flood-opacity="0" result="BackgroundImageFix"/>
<feGaussianBlur in="BackgroundImageFix" stdDeviation="2.60919"/>
<feComposite in2="SourceAlpha" operator="in" result="effect1_backgroundBlur_460_2165"/>
<feBlend mode="normal" in="SourceGraphic" in2="effect1_backgroundBlur_460_2165" result="shape"/>
</filter>
<filter id="filter1_b_460_2165" x="284.282" y="14.2816" width="100.437" height="60.4368" filterUnits="userSpaceOnUse" color-interpolation-filters="sRGB">
<feFlood flood-opacity="0" result="BackgroundImageFix"/>
<feGaussianBlur in="BackgroundImageFix" stdDeviation="2.60919"/>
<feComposite in2="SourceAlpha" operator="in" result="effect1_backgroundBlur_460_2165"/>
<feBlend mode="normal" in="SourceGraphic" in2="effect1_backgroundBlur_460_2165" result="shape"/>
</filter>
</defs>
</svg>
