<svg width="226" height="54" viewBox="0 0 226 54" fill="none" xmlns="http://www.w3.org/2000/svg">
<path fill-rule="evenodd" clip-rule="evenodd" d="M202.88 0.999998L225 53L2.08908 53C1.48755 53 0.999908 52.5123 0.999909 51.9108L0.999913 2.08916C0.999913 1.48762 1.48755 0.99998 2.08909 0.999981L202.88 0.999998Z" fill="black"/>
<path d="M202.88 0.999998L203.34 0.804277L203.21 0.499998L202.88 0.499998L202.88 0.999998ZM225 53L225 53.5L225.756 53.5L225.46 52.8043L225 53ZM202.419 1.19572L224.54 53.1957L225.46 52.8043L203.34 0.804277L202.419 1.19572ZM225 52.5L2.08908 52.5L2.08908 53.5L225 53.5L225 52.5ZM2.08908 52.5C1.76369 52.5 1.49991 52.2362 1.49991 51.9108L0.499909 51.9108C0.499908 52.7885 1.2114 53.5 2.08908 53.5L2.08908 52.5ZM1.49991 51.9108L1.49991 2.08916L0.499913 2.08916L0.499909 51.9108L1.49991 51.9108ZM1.49991 2.08916C1.49991 1.76376 1.76369 1.49998 2.08909 1.49998L2.08909 0.499981C1.2114 0.49998 0.499913 1.21149 0.499913 2.08916L1.49991 2.08916ZM2.08909 1.49998L202.88 1.5L202.88 0.499998L2.08909 0.499981L2.08909 1.49998Z" fill="#7A8A99"/>
<path d="M17.0798 20.2H19.8198L22.5398 29.74L25.2598 20.2H27.9998L23.5798 34H21.4798L17.0798 20.2ZM29.374 20.2H31.994V34H29.374V20.2ZM37.0888 22.48V25.9H42.3288V28.18H37.0888V31.72H43.2288V34H34.4688V20.2H43.2288V22.48H37.0888ZM60.5134 20.2L57.2134 34H54.8134L52.2933 23.78L49.7933 34H47.4133L44.0133 20.2H46.6333L48.7133 29.94L50.7333 20.2H53.9934L56.1134 29.94L58.0733 20.2H60.5134ZM66.1485 20.2H68.7685V31.72H74.8085V34H66.1485V20.2ZM79.081 22.48V25.9H84.321V28.18H79.081V31.72H85.221V34H76.461V20.2H85.221V22.48H79.081ZM94.3455 31.32H89.6055L88.7655 34H86.0055L90.9055 20.2H93.0455L97.9655 34H95.1855L94.3455 31.32ZM93.6455 29.14L91.9655 23.84L90.3055 29.14H93.6455ZM99.2344 20.2H104.094C105.614 20.2 106.834 20.64 107.714 21.48C108.594 22.34 109.054 23.74 109.054 25.68V28.5C109.054 30.46 108.594 31.86 107.694 32.72C106.774 33.58 105.554 34 104.014 34H99.2344V20.2ZM104.074 31.72C104.854 31.72 105.434 31.46 105.834 30.94C106.234 30.42 106.434 29.6 106.434 28.48V25.82C106.434 24.66 106.234 23.8 105.854 23.28C105.454 22.76 104.874 22.48 104.074 22.48H101.854V31.72H104.074ZM113.651 22.48V25.9H118.891V28.18H113.651V31.72H119.791V34H111.031V20.2H119.791V22.48H113.651ZM126.256 28.4H124.296V34H121.676V20.2H126.916C128.256 20.2 129.336 20.58 130.136 21.32C130.936 22.06 131.336 23.06 131.336 24.32C131.336 25.24 131.116 26 130.696 26.62C130.276 27.26 129.676 27.72 128.896 28L131.896 34H128.876L126.256 28.4ZM124.296 26.22H126.776C127.376 26.22 127.856 26.06 128.196 25.74C128.536 25.42 128.716 24.94 128.716 24.32C128.716 23.76 128.536 23.32 128.196 22.98C127.836 22.66 127.376 22.48 126.776 22.48H124.296V26.22ZM142.753 28.12C143.073 28.66 143.253 29.3 143.253 30.04C143.253 31.3 142.873 32.28 142.133 32.96C141.373 33.66 140.333 34 139.013 34H133.473V20.2H138.793C140.133 20.2 141.173 20.54 141.933 21.2C142.693 21.88 143.073 22.82 143.073 24.04C143.073 24.66 142.913 25.22 142.613 25.74C142.293 26.26 141.873 26.64 141.333 26.9C141.953 27.18 142.433 27.6 142.753 28.12ZM136.093 22.48V25.84H138.593C139.193 25.84 139.633 25.7 139.953 25.42C140.273 25.14 140.433 24.72 140.433 24.2C140.433 23.64 140.273 23.22 139.953 22.92C139.633 22.64 139.193 22.48 138.593 22.48H136.093ZM140.153 31.24C140.473 30.92 140.633 30.46 140.633 29.86C140.633 29.32 140.473 28.9 140.153 28.58C139.833 28.28 139.373 28.12 138.753 28.12H136.093V31.72H138.753C139.373 31.72 139.833 31.56 140.153 31.24ZM145.246 28.66V25.5C145.246 21.84 146.906 20 150.266 20C151.786 20 153.006 20.44 153.906 21.3C154.786 22.16 155.246 23.56 155.246 25.5V28.66C155.246 30.62 154.786 32.02 153.866 32.88C152.946 33.74 151.726 34.16 150.186 34.16C146.886 34.16 145.246 32.34 145.246 28.66ZM152.046 31.06C152.426 30.54 152.626 29.74 152.626 28.62V25.64C152.626 24.48 152.426 23.62 152.046 23.1C151.646 22.58 151.066 22.3 150.266 22.3C149.426 22.3 148.806 22.56 148.446 23.08C148.066 23.6 147.886 24.44 147.886 25.64V28.62C147.886 29.76 148.066 30.58 148.446 31.08C148.806 31.58 149.426 31.82 150.266 31.82C151.066 31.82 151.646 31.58 152.046 31.06ZM164.053 31.32H159.313L158.473 34H155.713L160.613 20.2H162.753L167.673 34H164.893L164.053 31.32ZM163.353 29.14L161.673 23.84L160.013 29.14H163.353ZM173.521 28.4H171.561V34H168.941V20.2H174.181C175.521 20.2 176.601 20.58 177.401 21.32C178.201 22.06 178.601 23.06 178.601 24.32C178.601 25.24 178.381 26 177.961 26.62C177.541 27.26 176.941 27.72 176.161 28L179.161 34H176.141L173.521 28.4ZM171.561 26.22H174.041C174.641 26.22 175.121 26.06 175.461 25.74C175.801 25.42 175.981 24.94 175.981 24.32C175.981 23.76 175.801 23.32 175.461 22.98C175.101 22.66 174.641 22.48 174.041 22.48H171.561V26.22ZM180.738 20.2H185.598C187.118 20.2 188.338 20.64 189.218 21.48C190.098 22.34 190.558 23.74 190.558 25.68V28.5C190.558 30.46 190.098 31.86 189.198 32.72C188.278 33.58 187.058 34 185.518 34H180.738V20.2ZM185.578 31.72C186.358 31.72 186.938 31.46 187.338 30.94C187.738 30.42 187.938 29.6 187.938 28.48V25.82C187.938 24.66 187.738 23.8 187.358 23.28C186.958 22.76 186.378 22.48 185.578 22.48H183.358V31.72H185.578Z" fill="white"/>
</svg>
